<svg width="720" height="220" viewBox="0 0 720 220" fill="none" xmlns="http://www.w3.org/2000/svg" role="img" aria-labelledby="title desc">
  <title id="title">SukuuNova official logo</title>
  <desc id="desc">An abstract open book with a rising learning path and discovery star beside the SukuuNova wordmark.</desc>
  <defs>
    <linearGradient id="nova" x1="30" y1="20" x2="190" y2="200" gradientUnits="userSpaceOnUse">
      <stop stop-color="#62F6E7"/>
      <stop offset="0.55" stop-color="#2EC4B6"/>
      <stop offset="1" stop-color="#6E6AF6"/>
    </linearGradient>
    <linearGradient id="word" x1="245" y1="55" x2="575" y2="170" gradientUnits="userSpaceOnUse">
      <stop stop-color="#08111F"/>
      <stop offset="1" stop-color="#173D70"/>
    </linearGradient>
    <filter id="soft" x="-40%" y="-40%" width="180%" height="180%">
      <feGaussianBlur stdDeviation="8" result="blur"/>
      <feColorMatrix in="blur" type="matrix" values="1 0 0 0 0.12  0 1 0 0 0.78  0 0 1 0 0.72  0 0 0 0.22 0"/>
      <feBlend in="SourceGraphic"/>
    </filter>
  </defs>
  <g transform="translate(10 12)" filter="url(#soft)">
    <path d="M52 152C77 135 105 133 130 151C144 161 158 163 178 154V64C155 76 135 76 117 65C98 54 76 53 52 66V152Z" fill="#0C202C" stroke="url(#nova)" stroke-width="5" stroke-linejoin="round"/>
    <path d="M52 66C75 54 97 55 117 66C136 77 156 77 178 64" stroke="#B9FFF7" stroke-opacity="0.75" stroke-width="3" stroke-linecap="round"/>
    <path d="M52 152C77 136 104 135 129 152C145 163 159 164 178 154" stroke="url(#nova)" stroke-width="5" stroke-linecap="round"/>
    <path d="M116 141C120 122 127 105 139 91C151 77 164 68 181 60" stroke="#F4FBFF" stroke-width="6" stroke-linecap="round"/>
    <path d="M181 60L178 48L190 53L201 41L202 55L214 59L202 65L204 78L193 70L182 79L184 66L173 60L181 60Z" fill="#62F6E7"/>
    <circle cx="60" cy="62" r="4" fill="#62F6E7"/>
    <circle cx="188" cy="37" r="3" fill="#6E6AF6"/>
  </g>
  <text x="245" y="122" font-family="Inter, ui-sans-serif, system-ui, -apple-system, BlinkMacSystemFont, 'Segoe UI', sans-serif" font-size="72" font-weight="800" letter-spacing="-2.6" fill="url(#word)">SukuuNova</text>
  <text x="248" y="160" font-family="Inter, ui-sans-serif, system-ui, -apple-system, BlinkMacSystemFont, 'Segoe UI', sans-serif" font-size="17" font-weight="700" letter-spacing="5.2" fill="#173D70">LEARN · CONNECT · GROW</text>
</svg>
